<mxfile host="app.diagrams.net" modified="2023-09-26T11:27:28.534Z" agent="Mozilla/5.0 (Windows NT 10.0; Win64; x64) AppleWebKit/537.36 (KHTML, like Gecko) Chrome/117.0.0.0 Safari/537.36" version="21.8.2" etag="TmV3eIi_68Qr_IMzFfYu" type="github">
  <diagram name="PÃ¡gina-1" id="U9NhHtdBaSuQIAJtxlln">
    <mxGraphModel>
      <root>
        <mxCell id="0" />
        <mxCell id="1" parent="0" />
      </root>
    </mxGraphModel>
  </diagram>
</mxfile>
